<svg xmlns="http://www.w3.org/2000/svg" width="329" height="251" fill="none"><path fill="#F99F10" d="M84.546 187.692c-24.642-2.806-33.607-18.3-29.645-27.874 3.961-9.575 15.726-7.233 28.735 3.358"/><path fill="#EF6122" d="M194.802 71.089c19.946-13.906 45.467-17.026 49.955-12.035 3.642 4.043-10.114 26.192-7.885 32.665 2.229 6.473 21.735 2.285 23.869 10.516 1.011 3.911-13.956 13.347-13.554 18.809.402 5.462 11.96 3.918 12.807 10.987.572 4.752-9.976 5.801-9.574 11.464.402 5.662 8.017 4.626 7.685 10.114-.27 4.451-8.595 1.519-10.824 9.002-2.222 7.484-52.485-91.522-52.485-91.522h.006Z"/><path fill="#FAC20C" d="M237.28 203.57c-23.7 26.004-91.761 43.62-136.229 9.235-7.307-7.283-54.814-64.244-11.734-122.568 33.174-44.9 133.084-29.124 149.671 19.418 12.782 37.405 12.851 77.937-1.714 93.915h.006Z"/><path stroke="#E4D6C8" stroke-linecap="round" stroke-miterlimit="10" stroke-width="6" d="M109.182 248h117.055" opacity=".6" style="mix-blend-mode:multiply"/><path fill="#FAC20C" d="M247.061 149.239c3.767 30.662-8.211 64.257 11.069 66.347 19.28 2.091 21.986-20.492 13.127-23.141-8.858-2.649-10.924 5.054-9.404 9.405 1.324 2.831-1.677 4.043-4.527.929-3.164-3.459-2.831-14.49 6.448-17.617 9.279-3.126 22.149.101 22.752 18.408.514 15.488-13.417 30.951-37.318 26.092-23.9-4.86-23.36-10.617-43.18 1.111-5.939 3.516 41.033-81.534 41.033-81.534Z"/><path fill="#FAC20C" d="M101.051 212.805c22.765 17.666 19.073 33.65 35.384 34.711 16.31 1.061 14.031-16.442 26.173-15.645 12.142.798 14.415 15.909 32.621 15.645 18.207-.263 4.364-22.036 28.233-23.517 13.027-.81-71.47-18.91-71.47-18.91l-50.934 7.716h-.007Z"/><path fill="url(#a)" d="M101.051 212.805c22.765 17.666 19.073 33.65 35.384 34.711 16.31 1.061 14.031-16.442 26.173-15.645 12.142.798 14.415 15.909 32.621 15.645 18.207-.263 4.364-22.036 28.233-23.517 13.027-.81-71.47-18.91-71.47-18.91l-50.934 7.716h-.007Z" opacity=".5"/><path fill="#EF6122" d="M219.883 84.336c-33.977-24.07-73.523-10.924-78.576-7.584-5.054 3.34-12.218-.628-8.193-10.654 13.485-33.575 49.791-47.06 57.645-44.87 6.875 1.921-2.699 35.308 4.144 42.07 5.493 5.424 9.235 1.28 18.577-1.852 8.438-2.832 6.403 22.89 6.403 22.89Z"/><path fill="#02021C" d="M124.199 146.458c5.412 0 9.8-4.388 9.8-9.8 0-5.413-4.388-9.801-9.8-9.801-5.413 0-9.8 4.388-9.8 9.801 0 5.412 4.387 9.8 9.8 9.8Zm23.279 0c5.412 0 9.8-4.388 9.8-9.8 0-5.413-4.388-9.801-9.8-9.801-5.412 0-9.8 4.388-9.8 9.801 0 5.412 4.388 9.8 9.8 9.8Z"/><path stroke="#C15833" stroke-linecap="round" stroke-miterlimit="10" stroke-width="4.288" d="M109.182 126.035h49.283"/><path fill="#E83878" d="M97.077 157.689a3.44 3.44 0 1 0 0-6.88 3.44 3.44 0 0 0 0 6.88Zm65.5-.238a3.44 3.44 0 1 0-.001-6.881 3.44 3.44 0 0 0 .001 6.881Z" opacity=".3"/><path fill="#02021C" d="M130.891 174.238a5.217 5.217 0 1 0 0-10.435 5.217 5.217 0 0 0 0 10.435Z"/><path fill="#2D2DEA" d="M170.996 112.066H77.904c-11.186 0-20.253 9.068-20.253 20.253v.007c0 11.185 9.067 20.253 20.253 20.253h93.092c11.185 0 20.253-9.068 20.253-20.253v-.007c0-11.185-9.068-20.253-20.253-20.253Z"/><path fill="#02021C" d="M149.82 116.837H78.607c-8.557 0-15.494 6.937-15.494 15.495 0 8.557 6.937 15.494 15.494 15.494h71.213c8.557 0 15.494-6.937 15.494-15.494 0-8.558-6.937-15.495-15.494-15.495Z"/><path fill="#F99F10" d="M209.669 185.056c17.842-17.228 15.532-34.976 6.561-40.162-8.972-5.185-16.882 3.83-20.756 20.153"/><path stroke="#2A93F2" stroke-linecap="round" stroke-miterlimit="10" stroke-width="4" d="m70 134.501 7.303-7.238a3.06 3.06 0 0 1 4.303 0l5.714 5.662a3.06 3.06 0 0 0 4.303 0l.64-.633a3.06 3.06 0 0 1 4.303 0l7.895 7.824a3.06 3.06 0 0 0 4.303 0l13.351-13.232a3.06 3.06 0 0 1 4.303 0l4.046 4.01a3.06 3.06 0 0 0 4.303 0 3.06 3.06 0 0 1 4.303 0l4.752 4.709a3.061 3.061 0 0 0 4.303 0l8.875-8.796"/><circle cx="281" cy="33" r="4" fill="#FBC55A" opacity=".33"/><circle cx="45" cy="29" r="4" fill="#FBC55A" opacity=".33"/><circle cx="281" cy="108" r="4" fill="#FBC55A" opacity=".33"/><circle cx="320" cy="159" r="4" fill="#FBC55A" opacity=".33"/><circle cx="298" cy="227" r="4" fill="#FBC55A" opacity=".33"/><circle cx="128" cy="13" r="4" fill="#FBC55A" opacity=".33"/><circle cx="72" cy="64" r="4" fill="#FBC55A" opacity=".33"/><circle cx="5" cy="136" r="4" fill="#FBC55A" opacity=".33"/><circle cx="25" cy="213" r="4" fill="#FBC55A" opacity=".33"/><circle cx="213" cy="17" r="4" fill="#FBC55A" opacity=".33"/><circle cx="55" cy="217" r="14" fill="#FBC55A" opacity=".66"/><path fill="#FF671D" d="M55 207a9.999 9.999 0 0 0-9.87 8.398 10.002 10.002 0 0 0 6.707 11.089c.5.088.688-.212.688-.475 0-.237-.012-1.025-.012-1.862-2.513.462-3.163-.612-3.363-1.175a3.64 3.64 0 0 0-1.025-1.413c-.35-.187-.85-.649-.013-.662a2.006 2.006 0 0 1 1.538 1.025 2.136 2.136 0 0 0 2.913.825c.043-.508.27-.984.637-1.337-2.225-.25-4.55-1.113-4.55-4.938a3.89 3.89 0 0 1 1.025-2.687 3.594 3.594 0 0 1 .1-2.65s.837-.263 2.75 1.025a9.428 9.428 0 0 1 5 0c1.913-1.3 2.75-1.025 2.75-1.025.37.838.406 1.786.1 2.65a3.867 3.867 0 0 1 1.025 2.687c0 3.837-2.337 4.688-4.563 4.938a2.359 2.359 0 0 1 .675 1.85c0 1.337-.012 2.412-.012 2.75 0 .262.188.575.688.475a10.008 10.008 0 0 0 6.68-11.098A10.003 10.003 0 0 0 55 207Z"/><path fill="#FAC20C" d="m10.764 90.253-.066-8.532a1.721 1.721 0 0 0-3.441.026l.066 8.532a1.72 1.72 0 0 0 3.441-.026Z"/><path fill="#FAC20C" d="m13.253 84.25-8.532.066a1.72 1.72 0 1 0 .026 3.441l8.532-.065a1.72 1.72 0 1 0-.026-3.442Zm148.511-73.997-.066-8.532a1.72 1.72 0 1 0-3.441.026l.066 8.532a1.72 1.72 0 1 0 3.441-.026Z"/><path fill="#FAC20C" d="m164.253 4.25-8.532.066a1.721 1.721 0 0 0 .026 3.441l8.532-.065a1.721 1.721 0 0 0-.026-3.442Zm150.511 71.003-.066-8.532a1.72 1.72 0 1 0-3.441.026l.066 8.532a1.72 1.72 0 1 0 3.441-.026Z"/><path fill="#FAC20C" d="m317.253 69.25-8.532.066a1.721 1.721 0 1 0 .026 3.441l8.532-.065a1.721 1.721 0 1 0-.026-3.442Z"/><circle cx="314" cy="193" r="14" fill="#FBC55A" opacity=".66"/><path fill="#FF671D" d="M314 183.269c-5.523 0-10 4.477-10 10 0 5.524 4.477 10 10 10s10-4.477 10-10c0-5.522-4.477-10-10-10Zm0 18.716c-1.571 0-2.845-1.049-2.845-2.344h5.69c0 1.294-1.274 2.344-2.845 2.344Zm4.699-3.12h-9.4v-1.705h9.394v1.705h.006Zm-.033-2.582h-9.339l-.093-.108c-.962-1.168-1.189-1.778-1.408-2.399-.004-.02 1.167.239 1.996.426.349.078.7.149 1.052.213-.6-.703-.956-1.596-.956-2.509 0-2.005 1.538-3.757.983-5.172.539.043 1.117 1.139 1.156 2.852.574-.793.813-2.241.813-3.129 0-.92.606-1.988 1.212-2.025-.54.891.14 1.654.744 3.547.228.712.198 1.909.373 2.667.058-1.576.329-3.877 1.33-4.67-.441.999.065 2.251.411 2.852.559.971.898 1.706.898 3.097 0 .934-.344 1.811-.925 2.497.66-.124 1.116-.235 1.116-.235l2.145-.419s-.311 1.28-1.509 2.515h.001Z"/><circle cx="244" cy="19" r="17" fill="#FBC55A" opacity=".66"/><path fill="#FF671D" d="M234.186 27h3.752l2.629-4.901-1.819-3.391L234.186 27Zm20.41-8.43-2.052 3.823 2.403 4.55L257 23.106l-2.404-4.536Zm-.624-1.171-4.38-8.252-2.161 3.7 4.486 8.38 2.055-3.828Zm-6.824 5.046 2.444 4.552h4.166l-4.529-8.438-2.081 3.886Zm-9.022-4.902-2.043-3.826-2.609 4.87 2.005 3.765 2.647-4.809Zm-5.262 2.203L231 23.32l2.052 3.617 1.818-3.416-2.006-3.775Zm13.874-5.8-2.173 3.724 1.962 3.617 2.083-3.885-1.872-3.456ZM238.544 9l-1.875 3.54 7.291 13.536 1.945-3.623-3.685-6.863L238.544 9Z"/><circle cx="18" cy="175" r="18" fill="#FBC55A" opacity=".66"/><path fill="#FF671D" d="M5.918 171.904h-.451a.47.47 0 0 0-.33.134.456.456 0 0 0 .33.783h.45a.47.47 0 0 0 .33-.134.455.455 0 0 0 0-.649.47.47 0 0 0-.33-.134Zm8.628 6.691h-.451a.47.47 0 0 0-.33.134.456.456 0 0 0 .33.783h.45a.47.47 0 0 0 .33-.134.455.455 0 0 0 0-.649.47.47 0 0 0-.33-.134Zm-.378-4.368a.456.456 0 0 0-.137-.325.47.47 0 0 0-.33-.134h-1.56a.47.47 0 0 0-.33.134.456.456 0 0 0 .33.783h1.56a.47.47 0 0 0 .33-.134.455.455 0 0 0 .137-.324Zm14.801-2.884-.474-2.621a1.902 1.902 0 0 0-.682-1.214 1.967 1.967 0 0 0-1.337-.443H8.198a1.26 1.26 0 0 0-.999.442 1.214 1.214 0 0 0-.25 1.049l.5 2.787.016.066c.06.34-.116.478-.273.528a.46.46 0 0 0-.302.509.467.467 0 0 0 .457.381h20.374a1.251 1.251 0 0 0 .995-.44 1.21 1.21 0 0 0 .253-1.044Zm-6.218 10.513c-.197-1.016-.788-1.393-1.455-1.393h-4.828a.474.474 0 0 0-.331.137.46.46 0 0 0-.017.637.469.469 0 0 0 .3.151c.154.027.32.224.424.712l.496 2.71c.09.408.319.774.647 1.038.328.265.738.413 1.163.421l2.88-.013a1.248 1.248 0 0 0 1.004-.429 1.212 1.212 0 0 0 .264-1.044l-.547-2.927Zm-6.384-2.311h5.24c.04 0 .078-.006.116-.017.485-.101.508-.488.445-.873l-.667-3.602c-.184-.937-.737-1.306-1.463-1.306h-4.799a.47.47 0 0 0-.317.126.455.455 0 0 0 .262.787c.16.029.335.24.437.774l.506 2.756a.37.37 0 0 1-.297.463.452.452 0 0 0-.146.782c.084.07.191.107.301.106h.374l.008.004Z"/><circle cx="34.5" cy="61.5" r="16.5" fill="#FBC55A" opacity=".66"/><path fill="#FF671D" d="M44.97 60.14a6.678 6.678 0 0 0-.231-1.311 8.239 8.239 0 0 0-.618-1.583 9.07 9.07 0 0 0-1.157-1.706 7.408 7.408 0 0 0-.618-.643c.335-1.286-.411-2.4-.411-2.4-1.287-.073-2.11.397-2.419.594-.051-.024-.103-.05-.154-.05a3.02 3.02 0 0 0-.669-.222c-.231-.05-.463-.123-.72-.198-.232-.049-.49-.098-.746-.148-.052 0-.077-.025-.129-.025-.566-1.73-2.187-2.448-2.187-2.448-1.8 1.088-2.135 2.621-2.135 2.621s0 .025-.026.1l-.308.074c-.13.05-.283.099-.412.148-.129.05-.283.099-.412.148-.257.1-.54.248-.797.371-.258.149-.515.297-.746.445-.026-.024-.052-.024-.052-.024-2.495-.915-4.708.198-4.708.198-.154 2.547 1.03 4.154 1.261 4.451-.052.149-.103.322-.154.47-.18.569-.31 1.162-.412 1.78-.026.075-.026.174-.026.273C23.694 62.143 23 64.369 23 64.369c1.93 2.127 4.142 2.25 4.142 2.25.283.495.617.94.977 1.385.155.173.31.346.49.52-.695 1.929.102 3.511.102 3.511 2.136.075 3.55-.89 3.834-1.112.205.074.437.123.643.197.643.173 1.337.248 2.006.297h.849C37.047 72.802 38.822 73 38.822 73c1.26-1.286 1.337-2.547 1.337-2.82v-.122c.258-.173.515-.371.747-.569a7.29 7.29 0 0 0 1.312-1.484c.025-.05.077-.099.102-.148 1.415.074 2.419-.84 2.419-.84-.232-1.435-1.08-2.128-1.26-2.252h-.053s-.026 0-.026-.024c0-.074.026-.173.026-.247 0-.149.025-.297.025-.47v-.594c0-.05 0-.074-.025-.124l-.026-.123-.026-.124c-.026-.148-.051-.321-.103-.47-.154-.618-.411-1.187-.72-1.731a6.352 6.352 0 0 0-1.21-1.385 5.688 5.688 0 0 0-1.517-.94c-.54-.222-1.106-.395-1.672-.445a9.665 9.665 0 0 0-.85-.05h-.436c-.155 0-.283.025-.438.05a4.732 4.732 0 0 0-1.57.569 5.178 5.178 0 0 0-1.208.99c-.335.37-.592.815-.772 1.236-.18.42-.283.89-.309 1.335v.643c.026.223.052.445.129.643.129.42.309.792.566 1.113a4.2 4.2 0 0 0 .849.791c.309.198.643.347.977.446.335.099.643.123.978.123h.437c.052 0 .078-.024.103-.024.026 0 .077-.025.103-.025.077-.025.129-.025.206-.05l.386-.148a1.51 1.51 0 0 0 .334-.198c.026-.025.052-.05.078-.05a.228.228 0 0 0 .05-.32.217.217 0 0 0-.308-.05c-.026 0-.051.024-.077.05-.077.049-.18.073-.283.123l-.309.074c-.051 0-.103.025-.154.025h-.489a2.61 2.61 0 0 1-1.39-.618 2.387 2.387 0 0 1-.514-.619 2.427 2.427 0 0 1-.283-.791c-.025-.148-.025-.297-.025-.42v-.226c0-.073.025-.148.025-.222a2.93 2.93 0 0 1 .927-1.657c.128-.123.257-.222.386-.297.128-.098.282-.173.437-.247a2.81 2.81 0 0 1 .489-.173c.18-.05.334-.074.514-.074h.54c.18.025.386.05.566.074a4.003 4.003 0 0 1 2.676 1.978c.18.347.309.693.36 1.064.026.099.026.198.026.272v.594c0 .099-.026.197-.026.296-.026.1-.026.198-.051.297l-.078.297a5.144 5.144 0 0 1-.823 1.682 5.218 5.218 0 0 1-1.98 1.558 5.447 5.447 0 0 1-1.236.37 5.55 5.55 0 0 1-.643.05h-.334c-.129 0-.232 0-.335-.025a6.265 6.265 0 0 1-1.363-.222 8.078 8.078 0 0 1-1.286-.495 6.573 6.573 0 0 1-2.11-1.681 6.548 6.548 0 0 1-.746-1.113 7.062 7.062 0 0 1-.489-1.212 5.406 5.406 0 0 1-.231-1.286v-.692c0-.222.025-.42.051-.643.026-.222.077-.445.103-.668.026-.222.103-.445.154-.642.129-.421.283-.841.463-1.212.386-.767.875-1.46 1.441-2.004.154-.148.309-.272.463-.395.154-.124.309-.248.489-.346.18-.1.334-.198.514-.297.078-.05.18-.1.258-.124a.443.443 0 0 1 .128-.05c.026 0 .103-.049.129-.049.18-.074.386-.148.566-.198.051-.025.103-.025.154-.05.052-.024.103-.024.155-.049l.308-.074c.052 0 .103-.025.155-.025.051 0 .103-.024.154-.024.052 0 .103-.025.154-.025h.155c.051 0 .103-.025.154-.025.052 0 .103 0 .18-.024.052 0 .129-.025.18-.025h1.287c.386.025.771.05 1.132.123.72.124 1.415.347 2.032.643a8.53 8.53 0 0 1 1.672 1.04l.077.073.078.074a1.1 1.1 0 0 0 .18.149c.077.05.103.099.154.148l.154.149c.206.222.386.42.566.643.335.42.618.865.85 1.261.025.025.025.05.05.074.026.025.026.05.052.074l.077.149.078.148c.025.05.051.1.051.148.077.198.154.371.206.545.103.272.18.519.231.742.026.074.103.148.206.123.103 0 .18-.074.18-.173.052-.297.026-.569 0-.89Z"/><circle cx="27" cy="111" r="14" fill="#FBC55A" opacity=".66"/><path fill="#FF671D" d="M24.488 113.175h5.024a.668.668 0 0 0 .579-1.004l-2.512-4.351a.668.668 0 0 0-1.159 0l-2.512 4.351a.67.67 0 0 0 .579 1.004ZM27 102a9.001 9.001 0 0 0 0 18c4.97 0 9-4.031 9-9s-4.03-9-9-9Zm.023 4.117a4.882 4.882 0 0 1 4.86 4.907 4.882 4.882 0 0 1-4.907 4.86 4.883 4.883 0 1 1 .047-9.767Zm-6.42 7.651a.523.523 0 0 1-.657-.333 7.783 7.783 0 0 1-.368-2.411c0-.469.039-.959.117-1.453a7.473 7.473 0 0 1 5.864-5.909.522.522 0 1 1 .209 1.024 6.419 6.419 0 0 0-5.043 5.066c-.065.42-.099.856-.099 1.27 0 .733.107 1.438.318 2.087a.52.52 0 0 1-.337.657l-.005.002Zm12.088 2.155c-1.372 1.633-3.347 2.53-5.559 2.53-2.211 0-4.31-.91-5.736-2.497a.52.52 0 1 1 .774-.696c1.21 1.346 3.062 2.153 4.96 2.153 1.896 0 3.59-.767 4.76-2.16a.521.521 0 1 1 .798.672l.002-.002h.002Zm1.412-2.522a.52.52 0 0 1-.666.321.523.523 0 0 1-.321-.665c.091-.266.174-.545.242-.832.079-.395.12-.816.12-1.234a6.449 6.449 0 0 0-5.193-6.31.533.533 0 0 1-.425-.61.512.512 0 0 1 .626-.412 7.494 7.494 0 0 1 6.034 7.332c0 .485-.047.976-.143 1.456-.08.341-.173.654-.276.955h.002v-.001Z"/><circle cx="292" cy="143" r="14" fill="#FBC55A" opacity=".66"/><path fill="#FF671D" d="M300.535 150.017H283l5.838-12.451 3.516 2.584 4.586-7.15 3.595 17.017Zm-6.429-2.69h.037c.434 0 .852-.167 1.164-.468a1.515 1.515 0 0 0 .5-1.151 1.406 1.406 0 0 0-.115-.607 1.41 1.41 0 0 0-.367-.498 1.467 1.467 0 0 0-1.001-.431h-.028a.515.515 0 0 0-.146.02l.926-1.376-.738-.514-.349.514-.892 1.363c-.153.226-.281.425-.361.563a3.367 3.367 0 0 0-.212.456 1.526 1.526 0 0 0 .393 1.664c.309.301.723.469 1.153.469l.035-.003.001-.001Zm-3.92-1.481 1.022 1.445h1.092l-1.201-1.677 1.067-1.482-.709-.49-.313.413-.96 1.353v-2.722l-.957-.78v5.384h.957v-1.446h.001l.001.002Zm3.921.58a.701.701 0 0 1-.704-.704.702.702 0 0 1 .704-.703h.006a.688.688 0 0 1 .496.212.665.665 0 0 1 .212.488.719.719 0 0 1-.714.706v.001Z"/><path fill="#FCD689" d="M294.106 147.327h.037c.434 0 .852-.167 1.164-.468a1.514 1.514 0 0 0 .5-1.151 1.406 1.406 0 0 0-.115-.607 1.41 1.41 0 0 0-.367-.498 1.467 1.467 0 0 0-1.001-.431h-.028a.515.515 0 0 0-.146.02l.926-1.376-.738-.514-.349.514-.892 1.363c-.153.226-.281.425-.361.563a3.367 3.367 0 0 0-.212.456 1.526 1.526 0 0 0 .393 1.664c.309.301.723.468 1.153.468l.035-.002.001-.001Zm-3.921-1.48 1.022 1.444h1.093l-1.203-1.676 1.069-1.482-.709-.491-.313.413-.96 1.353v-2.72l-.957-.781v5.384h.957v-1.446l.001.002Z"/><path fill="#FF671D" d="M294.107 146.425a.706.706 0 0 1-.498-1.202.706.706 0 0 1 .498-.206h.006a.685.685 0 0 1 .496.212.662.662 0 0 1 .212.489.719.719 0 0 1-.714.706v.001Z"/><circle cx="282" cy="61" r="14" fill="#FBC55A" opacity=".66"/><path fill="#FF671D" d="M288.434 61.762a6.418 6.418 0 0 0 1.369-2.834h-4.23c-.233.61-.846 1.066-1.5 1.066h-7.654l-.249 1.77h12.264v-.002Zm-8.904-7.273.708.288h8.639c-.869-1.085-2.219-1.764-3.823-1.764h-6.931a2.455 2.455 0 0 0 1.408 1.477l-.001-.001Zm.606.946-.779.284a3.673 3.673 0 0 0-1.835 1.495h6.94c.651 0 1.135.452 1.2 1.056h4.232c.086-1.047-.13-2.019-.578-2.833h-9.18v-.002Zm-4.057 6.985-.225 1.598-.025.175h7.653c1.608 0 3.155-.683 4.329-1.773h-11.732Zm3.612 4.24.254-1.808h-4.209l-.254 1.808h4.209Zm-4.301.658-.249 1.775h4.208l.249-1.775h-4.208Zm3.817-12.214A3.013 3.013 0 0 1 277.4 53a4.487 4.487 0 0 1-2.4 2.104 3.017 3.017 0 0 1 1.808 2.103 4.48 4.48 0 0 1 2.399-2.103Z"/><path fill="#FF671D" d="M277.4 53a3.017 3.017 0 0 0 1.807 2.104 4.486 4.486 0 0 0-2.399 2.103A3.019 3.019 0 0 0 275 55.104 4.487 4.487 0 0 0 277.4 53Z"/><circle cx="315" cy="102" r="14" fill="#FBC55A" opacity=".66"/><path fill="#FF671D" d="m321.737 96-12.499-.69v-.619L321.737 94v2Zm0 2.883-12.499-.691v-.619l12.499-.69v2Zm-3.135 2.88-9.364-.69v-.616l9.364-.69v1.996Zm0 2.882-9.364-.689v-.618l9.364-.689v1.996Zm-3.114 2.885-6.25-.691v-.619l6.25-.691v2.001Zm0 2.883-6.25-.692v-.618l6.25-.691v2.001Z"/><circle cx="90" cy="29" r="14" fill="#FBC55A" opacity=".66"/><path fill="#FF671D" d="m86.335 38.761-.24-1.604-1.603.239.273 1.604 1.57-.239Zm12.559-4.505-.273-1.57-6.996 1.092.204 1.57 7.065-1.092Zm-9.556 1.502 1.604-.273-.239-1.57-1.604.239.239 1.604Zm-.478 2.594-.273-1.57-1.57.238.205 1.604 1.638-.273Zm-4.744-3.448.239 1.605 1.604-.24-.239-1.603-1.604.238Zm7.85 1.332.273 1.638 7.03-1.092-.238-1.604-7.065 1.058Zm-2.219 1.979 1.57-.205-.239-1.638-1.604.273.273 1.57Zm-3.139-3.685.272 1.603 1.57-.239-.238-1.604-1.605.24Zm-1.946-.615L82.717 21.15l-.717.103 1.98 12.764.682-.102Zm.922-.137-2.116-13.72-.683.136 2.116 13.686.683-.102Zm1.57-.238L84.935 19l-.682.137 2.218 14.47.683-.068Zm.921-.137L86.027 20.16l-.648.102 2.048 13.209.648-.068Zm1.57-.273-1.809-11.741-.682.102 1.809 11.775.682-.136Zm.922-.137L88.69 20.81l-.683.102 1.911 12.185.649-.103Z"/><defs><linearGradient id="a" x1="162.935" x2="162.935" y1="246.286" y2="222.981" gradientUnits="userSpaceOnUse"><stop stop-color="#F49314"/><stop offset=".59" stop-color="#F49314" stop-opacity=".4"/><stop offset="1" stop-color="#F49314" stop-opacity="0"/></linearGradient></defs></svg>